<?xml version="1.0" encoding="UTF-8" standalone="no"?>
<!DOCTYPE svg PUBLIC "-//W3C//DTD SVG 1.1//EN"
 "http://www.w3.org/Graphics/SVG/1.1/DTD/svg11.dtd">
<!-- Generated by graphviz version 7.0.2 (0)
 -->
<!-- Pages: 1 -->
<svg width="622pt" height="116pt"
 viewBox="0.00 0.00 621.50 116.00" xmlns="http://www.w3.org/2000/svg" xmlns:xlink="http://www.w3.org/1999/xlink">
<g id="graph0" class="graph" transform="scale(1 1) rotate(0) translate(4 112)">
<polygon fill="white" stroke="none" points="-4,4 -4,-112 617.5,-112 617.5,4 -4,4"/>
<!-- 0 -->
<g id="node1" class="node">
<title>0</title>
<ellipse fill="none" stroke="black" cx="278" cy="-90" rx="53.89" ry="18"/>
<text text-anchor="middle" x="278" y="-86.3" font-family="Times,serif" font-size="14.00">bootstrap</text>
</g>
<!-- 1 -->
<g id="node2" class="node">
<title>1</title>
<polygon fill="none" stroke="#b3b3b3" points="164,-36 0,-36 0,0 164,0 164,-36"/>
<text text-anchor="middle" x="82" y="-14.3" font-family="Times,serif" font-size="14.00">bootstrap&#45;tools.tar.xz</text>
</g>
<!-- 0&#45;&gt;1 -->
<g id="edge1" class="edge">
<title>0&#45;&gt;1</title>
<path fill="none" stroke="black" d="M242.05,-76.16C213.95,-66.13 174.29,-51.96 141.48,-40.24"/>
<polygon fill="black" stroke="black" points="142.66,-36.95 132.07,-36.88 140.31,-43.54 142.66,-36.95"/>
</g>
<!-- 2 -->
<g id="node3" class="node">
<title>2</title>
<polygon fill="none" stroke="#b3b3b3" points="258,-36 182,-36 182,0 258,0 258,-36"/>
<text text-anchor="middle" x="220" y="-14.3" font-family="Times,serif" font-size="14.00">busybox</text>
</g>
<!-- 0&#45;&gt;2 -->
<g id="edge2" class="edge">
<title>0&#45;&gt;2</title>
<path fill="none" stroke="black" d="M264.25,-72.41C257.52,-64.28 249.25,-54.31 241.7,-45.18"/>
<polygon fill="black" stroke="black" points="244.5,-43.08 235.42,-37.61 239.11,-47.55 244.5,-43.08"/>
</g>
<!-- 3 -->
<g id="node4" class="node">
<title>3</title>
<polygon fill="none" stroke="#b3b3b3" points="396,-36 276,-36 276,0 396,0 396,-36"/>
<text text-anchor="middle" x="336" y="-14.3" font-family="Times,serif" font-size="14.00">toybox&#45;x86_64</text>
</g>
<!-- 0&#45;&gt;3 -->
<g id="edge3" class="edge">
<title>0&#45;&gt;3</title>
<path fill="none" stroke="black" d="M291.75,-72.41C298.48,-64.28 306.75,-54.31 314.3,-45.18"/>
<polygon fill="black" stroke="black" points="316.89,-47.55 320.58,-37.61 311.5,-43.08 316.89,-47.55"/>
</g>
<!-- 4 -->
<g id="node5" class="node">
<title>4</title>
<polygon fill="none" stroke="#b3b3b3" points="613.5,-36 414.5,-36 414.5,0 613.5,0 613.5,-36"/>
<text text-anchor="middle" x="514" y="-14.3" font-family="Times,serif" font-size="14.00">unpack&#45;bootstrap&#45;tools.sh</text>
</g>
<!-- 0&#45;&gt;4 -->
<g id="edge4" class="edge">
<title>0&#45;&gt;4</title>
<path fill="none" stroke="black" d="M317.5,-77.28C352.07,-67.03 403.09,-51.9 444.48,-39.62"/>
<polygon fill="black" stroke="black" points="445.28,-43.03 453.88,-36.83 443.29,-36.32 445.28,-43.03"/>
</g>
</g>
</svg>
