<?xml version="1.0" encoding="UTF-8" standalone="no"?>
<!DOCTYPE svg PUBLIC "-//W3C//DTD SVG 1.1//EN"
 "http://www.w3.org/Graphics/SVG/1.1/DTD/svg11.dtd">
<!-- Generated by graphviz version 7.0.2 (0)
 -->
<!-- Pages: 1 -->
<svg width="1335pt" height="764pt"
 viewBox="0.00 0.00 1335.00 764.00" xmlns="http://www.w3.org/2000/svg" xmlns:xlink="http://www.w3.org/1999/xlink">
<g id="graph0" class="graph" transform="scale(1 1) rotate(0) translate(4 760)">
<polygon fill="white" stroke="none" points="-4,4 -4,-760 1331,-760 1331,4 -4,4"/>
<!-- 0 -->
<g id="node1" class="node">
<title>0</title>
<ellipse fill="none" stroke="black" cx="583" cy="-738" rx="68.49" ry="18"/>
<text text-anchor="middle" x="583" y="-734.3" font-family="Times,serif" font-size="14.00">libmpc&#45;1.3.1</text>
</g>
<!-- 1 -->
<g id="node2" class="node">
<title>1</title>
<ellipse fill="none" stroke="black" cx="626" cy="-594" rx="57.69" ry="18"/>
<text text-anchor="middle" x="626" y="-590.3" font-family="Times,serif" font-size="14.00">gmp&#45;6.2.1</text>
</g>
<!-- 0&#45;&gt;1 -->
<g id="edge1" class="edge">
<title>0&#45;&gt;1</title>
<path fill="none" stroke="black" d="M588.27,-719.59C595.57,-695.5 608.81,-651.75 617.51,-623.03"/>
<polygon fill="black" stroke="black" points="620.83,-624.14 620.38,-613.56 614.13,-622.12 620.83,-624.14"/>
</g>
<!-- 12 -->
<g id="node13" class="node">
<title>12</title>
<ellipse fill="none" stroke="black" cx="540" cy="-450" rx="76.09" ry="18"/>
<text text-anchor="middle" x="540" y="-446.3" font-family="Times,serif" font-size="14.00">stage0&#45;stdenv</text>
</g>
<!-- 0&#45;&gt;12 -->
<g id="edge41" class="edge">
<title>0&#45;&gt;12</title>
<path fill="none" stroke="black" d="M579.26,-719.68C574.17,-695.61 564.98,-650.65 559,-612 551.86,-565.88 546,-511.96 542.75,-479.69"/>
<polygon fill="black" stroke="black" points="546.26,-479.56 541.79,-469.95 539.29,-480.25 546.26,-479.56"/>
</g>
<!-- 21 -->
<g id="node22" class="node">
<title>21</title>
<ellipse fill="none" stroke="black" cx="1167" cy="-666" rx="122.38" ry="18"/>
<text text-anchor="middle" x="1167" y="-662.3" font-family="Times,serif" font-size="14.00">mpc&#45;1.3.1.tar.gz&#45;unpack</text>
</g>
<!-- 0&#45;&gt;21 -->
<g id="edge32" class="edge">
<title>0&#45;&gt;21</title>
<path fill="none" stroke="black" d="M644.39,-729.64C743.86,-717.72 941.34,-694.05 1063.02,-679.46"/>
<polygon fill="black" stroke="black" points="1063.18,-682.97 1072.69,-678.3 1062.34,-676.02 1063.18,-682.97"/>
</g>
<!-- 23 -->
<g id="node24" class="node">
<title>23</title>
<ellipse fill="none" stroke="black" cx="452" cy="-666" rx="59.59" ry="18"/>
<text text-anchor="middle" x="452" y="-662.3" font-family="Times,serif" font-size="14.00">mpfr&#45;4.2.0</text>
</g>
<!-- 0&#45;&gt;23 -->
<g id="edge35" class="edge">
<title>0&#45;&gt;23</title>
<path fill="none" stroke="black" d="M553.6,-721.29C534.97,-711.34 510.68,-698.35 490.52,-687.58"/>
<polygon fill="black" stroke="black" points="492.21,-684.52 481.74,-682.89 488.91,-690.69 492.21,-684.52"/>
</g>
<!-- 2 -->
<g id="node3" class="node">
<title>2</title>
<ellipse fill="none" stroke="black" cx="1010" cy="-522" rx="128.88" ry="18"/>
<text text-anchor="middle" x="1010" y="-518.3" font-family="Times,serif" font-size="14.00">gmp&#45;6.2.1.tar.bz2&#45;unpack</text>
</g>
<!-- 1&#45;&gt;2 -->
<g id="edge2" class="edge">
<title>1&#45;&gt;2</title>
<path fill="none" stroke="black" d="M675.02,-584.06C737.37,-572.7 846.11,-552.88 922.75,-538.9"/>
<polygon fill="black" stroke="black" points="923.12,-542.4 932.33,-537.16 921.86,-535.51 923.12,-542.4"/>
</g>
<!-- 9 -->
<g id="node10" class="node">
<title>9</title>
<ellipse fill="none" stroke="black" cx="664" cy="-522" rx="57.69" ry="18"/>
<text text-anchor="middle" x="664" y="-518.3" font-family="Times,serif" font-size="14.00">m4&#45;1.4.19</text>
</g>
<!-- 1&#45;&gt;9 -->
<g id="edge9" class="edge">
<title>1&#45;&gt;9</title>
<path fill="none" stroke="black" d="M635.2,-576.05C639.49,-568.14 644.71,-558.54 649.51,-549.69"/>
<polygon fill="black" stroke="black" points="652.47,-551.58 654.16,-541.12 646.32,-548.24 652.47,-551.58"/>
</g>
<!-- 1&#45;&gt;12 -->
<g id="edge31" class="edge">
<title>1&#45;&gt;12</title>
<path fill="none" stroke="black" d="M615.63,-575.87C600.9,-551.56 573.81,-506.82 556.36,-478.01"/>
<polygon fill="black" stroke="black" points="559.37,-476.22 551.19,-469.48 553.38,-479.85 559.37,-476.22"/>
</g>
<!-- 3 -->
<g id="node4" class="node">
<title>3</title>
<ellipse fill="none" stroke="black" cx="495" cy="-90" rx="55.79" ry="18"/>
<text text-anchor="middle" x="495" y="-86.3" font-family="Times,serif" font-size="14.00">bootstrap</text>
</g>
<!-- 2&#45;&gt;3 -->
<g id="edge3" class="edge">
<title>2&#45;&gt;3</title>
<path fill="none" stroke="black" d="M1058.74,-504.91C1077.01,-496.59 1096.37,-484.6 1109,-468 1133.54,-435.73 1129,-419.54 1129,-379 1129,-379 1129,-379 1129,-233 1129,-117.82 725.52,-96.04 562.31,-91.94"/>
<polygon fill="black" stroke="black" points="562.58,-88.45 552.5,-91.71 562.41,-95.45 562.58,-88.45"/>
</g>
<!-- 8 -->
<g id="node9" class="node">
<title>8</title>
<polygon fill="none" stroke="#b3b3b3" points="1100.5,-468 957.5,-468 957.5,-432 1100.5,-432 1100.5,-468"/>
<text text-anchor="middle" x="1029" y="-446.3" font-family="Times,serif" font-size="14.00">gmp&#45;6.2.1.tar.bz2</text>
</g>
<!-- 2&#45;&gt;8 -->
<g id="edge8" class="edge">
<title>2&#45;&gt;8</title>
<path fill="none" stroke="black" d="M1014.7,-503.7C1016.72,-496.24 1019.14,-487.32 1021.41,-478.97"/>
<polygon fill="black" stroke="black" points="1024.72,-480.13 1023.96,-469.57 1017.96,-478.3 1024.72,-480.13"/>
</g>
<!-- 4 -->
<g id="node5" class="node">
<title>4</title>
<polygon fill="none" stroke="#b3b3b3" points="380.5,-36 211.5,-36 211.5,0 380.5,0 380.5,-36"/>
<text text-anchor="middle" x="296" y="-14.3" font-family="Times,serif" font-size="14.00">bootstrap&#45;tools.tar.xz</text>
</g>
<!-- 3&#45;&gt;4 -->
<g id="edge4" class="edge">
<title>3&#45;&gt;4</title>
<path fill="none" stroke="black" d="M458.5,-76.16C429.85,-66.08 389.35,-51.84 355.96,-40.09"/>
<polygon fill="black" stroke="black" points="357.41,-36.89 346.81,-36.87 355.09,-43.49 357.41,-36.89"/>
</g>
<!-- 5 -->
<g id="node6" class="node">
<title>5</title>
<polygon fill="none" stroke="#b3b3b3" points="475,-36 399,-36 399,0 475,0 475,-36"/>
<text text-anchor="middle" x="437" y="-14.3" font-family="Times,serif" font-size="14.00">busybox</text>
</g>
<!-- 3&#45;&gt;5 -->
<g id="edge5" class="edge">
<title>3&#45;&gt;5</title>
<path fill="none" stroke="black" d="M481.25,-72.41C474.52,-64.28 466.25,-54.31 458.7,-45.18"/>
<polygon fill="black" stroke="black" points="461.5,-43.08 452.42,-37.61 456.11,-47.55 461.5,-43.08"/>
</g>
<!-- 6 -->
<g id="node7" class="node">
<title>6</title>
<polygon fill="none" stroke="#b3b3b3" points="612.5,-36 493.5,-36 493.5,0 612.5,0 612.5,-36"/>
<text text-anchor="middle" x="553" y="-14.3" font-family="Times,serif" font-size="14.00">toybox&#45;x86_64</text>
</g>
<!-- 3&#45;&gt;6 -->
<g id="edge6" class="edge">
<title>3&#45;&gt;6</title>
<path fill="none" stroke="black" d="M508.75,-72.41C515.48,-64.28 523.75,-54.31 531.3,-45.18"/>
<polygon fill="black" stroke="black" points="533.89,-47.55 537.58,-37.61 528.5,-43.08 533.89,-47.55"/>
</g>
<!-- 7 -->
<g id="node8" class="node">
<title>7</title>
<polygon fill="none" stroke="#b3b3b3" points="831.5,-36 630.5,-36 630.5,0 831.5,0 831.5,-36"/>
<text text-anchor="middle" x="731" y="-14.3" font-family="Times,serif" font-size="14.00">unpack&#45;bootstrap&#45;tools.sh</text>
</g>
<!-- 3&#45;&gt;7 -->
<g id="edge7" class="edge">
<title>3&#45;&gt;7</title>
<path fill="none" stroke="black" d="M535.03,-77.13C569.56,-66.88 620.2,-51.86 661.36,-39.66"/>
<polygon fill="black" stroke="black" points="662.1,-43.09 670.7,-36.89 660.11,-36.38 662.1,-43.09"/>
</g>
<!-- 9&#45;&gt;3 -->
<g id="edge10" class="edge">
<title>9&#45;&gt;3</title>
<path fill="none" stroke="black" d="M664.55,-503.53C665.64,-467.03 668,-380.02 668,-307 668,-307 668,-307 668,-233 668,-188.27 653.99,-174.21 621,-144 601.04,-125.72 573.86,-113.21 549.86,-104.96"/>
<polygon fill="black" stroke="black" points="551.12,-101.69 540.53,-101.93 548.96,-108.34 551.12,-101.69"/>
</g>
<!-- 10 -->
<g id="node11" class="node">
<title>10</title>
<ellipse fill="none" stroke="black" cx="811" cy="-450" rx="128.88" ry="18"/>
<text text-anchor="middle" x="811" y="-446.3" font-family="Times,serif" font-size="14.00">m4&#45;1.4.19.tar.bz2&#45;unpack</text>
</g>
<!-- 9&#45;&gt;10 -->
<g id="edge11" class="edge">
<title>9&#45;&gt;10</title>
<path fill="none" stroke="black" d="M694.82,-506.33C715.33,-496.56 742.64,-483.55 765.62,-472.61"/>
<polygon fill="black" stroke="black" points="766.95,-475.85 774.47,-468.39 763.94,-469.53 766.95,-475.85"/>
</g>
<!-- 9&#45;&gt;12 -->
<g id="edge14" class="edge">
<title>9&#45;&gt;12</title>
<path fill="none" stroke="black" d="M637.09,-505.81C619.95,-496.13 597.46,-483.44 578.44,-472.7"/>
<polygon fill="black" stroke="black" points="580.33,-469.75 569.9,-467.88 576.89,-475.84 580.33,-469.75"/>
</g>
<!-- 10&#45;&gt;3 -->
<g id="edge12" class="edge">
<title>10&#45;&gt;3</title>
<path fill="none" stroke="black" d="M825.52,-431.89C833.24,-421.98 842.3,-408.94 848,-396 864.36,-358.9 868,-347.54 868,-307 868,-307 868,-307 868,-233 868,-166.81 660.28,-120.33 554.86,-101"/>
<polygon fill="black" stroke="black" points="555.72,-97.6 545.25,-99.27 554.47,-104.49 555.72,-97.6"/>
</g>
<!-- 11 -->
<g id="node12" class="node">
<title>11</title>
<polygon fill="none" stroke="#b3b3b3" points="839.5,-396 696.5,-396 696.5,-360 839.5,-360 839.5,-396"/>
<text text-anchor="middle" x="768" y="-374.3" font-family="Times,serif" font-size="14.00">m4&#45;1.4.19.tar.bz2</text>
</g>
<!-- 10&#45;&gt;11 -->
<g id="edge13" class="edge">
<title>10&#45;&gt;11</title>
<path fill="none" stroke="black" d="M800.37,-431.7C795.58,-423.9 789.81,-414.51 784.48,-405.83"/>
<polygon fill="black" stroke="black" points="787.52,-404.08 779.3,-397.39 781.55,-407.75 787.52,-404.08"/>
</g>
<!-- 12&#45;&gt;3 -->
<g id="edge15" class="edge">
<title>12&#45;&gt;3</title>
<path fill="none" stroke="black" d="M559.53,-432.37C586,-407.85 630,-359.25 630,-307 630,-307 630,-307 630,-233 630,-190.16 621.71,-175.79 593,-144 579.24,-128.76 560.04,-117.05 542.27,-108.55"/>
<polygon fill="black" stroke="black" points="543.97,-105.48 533.41,-104.55 541.08,-111.86 543.97,-105.48"/>
</g>
<!-- 13 -->
<g id="node14" class="node">
<title>13</title>
<ellipse fill="none" stroke="black" cx="400" cy="-378" rx="62.29" ry="18"/>
<text text-anchor="middle" x="400" y="-374.3" font-family="Times,serif" font-size="14.00">cc&#45;wrapper</text>
</g>
<!-- 12&#45;&gt;13 -->
<g id="edge16" class="edge">
<title>12&#45;&gt;13</title>
<path fill="none" stroke="black" d="M508.58,-433.29C488.49,-423.24 462.23,-410.12 440.57,-399.28"/>
<polygon fill="black" stroke="black" points="442.22,-396.19 431.71,-394.85 439.09,-402.46 442.22,-396.19"/>
</g>
<!-- 14 -->
<g id="node15" class="node">
<title>14</title>
<ellipse fill="none" stroke="black" cx="400" cy="-306" rx="59.59" ry="18"/>
<text text-anchor="middle" x="400" y="-302.3" font-family="Times,serif" font-size="14.00">musl&#45;1.2.3</text>
</g>
<!-- 12&#45;&gt;14 -->
<g id="edge30" class="edge">
<title>12&#45;&gt;14</title>
<path fill="none" stroke="black" d="M528.77,-431.83C516.03,-413.04 494.02,-382.6 471,-360 459.63,-348.84 445.84,-338.03 433.44,-329.12"/>
<polygon fill="black" stroke="black" points="435.73,-326.45 425.54,-323.57 431.71,-332.18 435.73,-326.45"/>
</g>
<!-- 20 -->
<g id="node21" class="node">
<title>20</title>
<ellipse fill="none" stroke="black" cx="540" cy="-306" rx="61.99" ry="18"/>
<text text-anchor="middle" x="540" y="-302.3" font-family="Times,serif" font-size="14.00">ld&#45;wrapper</text>
</g>
<!-- 12&#45;&gt;20 -->
<g id="edge28" class="edge">
<title>12&#45;&gt;20</title>
<path fill="none" stroke="black" d="M540,-431.59C540,-407.61 540,-364.14 540,-335.42"/>
<polygon fill="black" stroke="black" points="543.5,-335.62 540,-325.62 536.5,-335.62 543.5,-335.62"/>
</g>
<!-- 13&#45;&gt;3 -->
<g id="edge17" class="edge">
<title>13&#45;&gt;3</title>
<path fill="none" stroke="black" d="M352.51,-365.99C237.27,-337.21 -40.76,-254.31 57,-144 81.21,-116.68 312.29,-100.66 428.68,-94.26"/>
<polygon fill="black" stroke="black" points="428.61,-97.77 438.41,-93.73 428.23,-90.78 428.61,-97.77"/>
</g>
<!-- 13&#45;&gt;14 -->
<g id="edge18" class="edge">
<title>13&#45;&gt;14</title>
<path fill="none" stroke="black" d="M400,-359.7C400,-352.41 400,-343.73 400,-335.54"/>
<polygon fill="black" stroke="black" points="403.5,-335.62 400,-325.62 396.5,-335.62 403.5,-335.62"/>
</g>
<!-- 15 -->
<g id="node16" class="node">
<title>15</title>
<ellipse fill="none" stroke="black" cx="437" cy="-234" rx="124.58" ry="18"/>
<text text-anchor="middle" x="437" y="-230.3" font-family="Times,serif" font-size="14.00">musl&#45;1.2.3.tar.gz&#45;unpack</text>
</g>
<!-- 14&#45;&gt;15 -->
<g id="edge19" class="edge">
<title>14&#45;&gt;15</title>
<path fill="none" stroke="black" d="M408.96,-288.05C413.03,-280.35 417.96,-271.03 422.54,-262.36"/>
<polygon fill="black" stroke="black" points="425.58,-264.09 427.16,-253.61 419.39,-260.82 425.58,-264.09"/>
</g>
<!-- 17 -->
<g id="node18" class="node">
<title>17</title>
<ellipse fill="none" stroke="black" cx="218" cy="-234" rx="76.09" ry="18"/>
<text text-anchor="middle" x="218" y="-230.3" font-family="Times,serif" font-size="14.00">stage0&#45;stdenv</text>
</g>
<!-- 14&#45;&gt;17 -->
<g id="edge22" class="edge">
<title>14&#45;&gt;17</title>
<path fill="none" stroke="black" d="M364.48,-291.34C336.72,-280.66 297.82,-265.7 267.08,-253.88"/>
<polygon fill="black" stroke="black" points="268.58,-250.7 257.99,-250.38 266.07,-257.24 268.58,-250.7"/>
</g>
<!-- 15&#45;&gt;3 -->
<g id="edge20" class="edge">
<title>15&#45;&gt;3</title>
<path fill="none" stroke="black" d="M426.4,-215.67C416.47,-197.02 404.85,-166.95 417,-144 424.58,-129.68 437.96,-118.51 451.52,-110.2"/>
<polygon fill="black" stroke="black" points="453.05,-113.35 460.03,-105.39 449.6,-107.26 453.05,-113.35"/>
</g>
<!-- 16 -->
<g id="node17" class="node">
<title>16</title>
<polygon fill="none" stroke="#b3b3b3" points="563.5,-180 426.5,-180 426.5,-144 563.5,-144 563.5,-180"/>
<text text-anchor="middle" x="495" y="-158.3" font-family="Times,serif" font-size="14.00">musl&#45;1.2.3.tar.gz</text>
</g>
<!-- 15&#45;&gt;16 -->
<g id="edge21" class="edge">
<title>15&#45;&gt;16</title>
<path fill="none" stroke="black" d="M451.34,-215.7C458.08,-207.56 466.26,-197.69 473.7,-188.7"/>
<polygon fill="black" stroke="black" points="476.18,-191.2 479.86,-181.27 470.79,-186.74 476.18,-191.2"/>
</g>
<!-- 17&#45;&gt;3 -->
<g id="edge23" class="edge">
<title>17&#45;&gt;3</title>
<path fill="none" stroke="black" d="M216.52,-215.67C215.84,-195.57 218.05,-162.81 237,-144 263.69,-117.51 362.6,-103.18 429.89,-96.32"/>
<polygon fill="black" stroke="black" points="430.12,-99.82 439.73,-95.35 429.44,-92.85 430.12,-99.82"/>
</g>
<!-- 18 -->
<g id="node19" class="node">
<title>18</title>
<ellipse fill="none" stroke="black" cx="308" cy="-162" rx="62.29" ry="18"/>
<text text-anchor="middle" x="308" y="-158.3" font-family="Times,serif" font-size="14.00">cc&#45;wrapper</text>
</g>
<!-- 17&#45;&gt;18 -->
<g id="edge24" class="edge">
<title>17&#45;&gt;18</title>
<path fill="none" stroke="black" d="M239.33,-216.41C250.96,-207.37 265.53,-196.03 278.26,-186.13"/>
<polygon fill="black" stroke="black" points="280.2,-189.06 285.94,-180.16 275.9,-183.53 280.2,-189.06"/>
</g>
<!-- 19 -->
<g id="node20" class="node">
<title>19</title>
<ellipse fill="none" stroke="black" cx="128" cy="-162" rx="61.99" ry="18"/>
<text text-anchor="middle" x="128" y="-158.3" font-family="Times,serif" font-size="14.00">ld&#45;wrapper</text>
</g>
<!-- 17&#45;&gt;19 -->
<g id="edge26" class="edge">
<title>17&#45;&gt;19</title>
<path fill="none" stroke="black" d="M196.67,-216.41C185.04,-207.37 170.47,-196.03 157.74,-186.13"/>
<polygon fill="black" stroke="black" points="160.1,-183.53 150.06,-180.16 155.8,-189.06 160.1,-183.53"/>
</g>
<!-- 18&#45;&gt;3 -->
<g id="edge25" class="edge">
<title>18&#45;&gt;3</title>
<path fill="none" stroke="black" d="M344.95,-147.17C374.78,-136 416.93,-120.23 448.96,-108.24"/>
<polygon fill="black" stroke="black" points="449.84,-111.64 457.98,-104.86 447.39,-105.08 449.84,-111.64"/>
</g>
<!-- 19&#45;&gt;3 -->
<g id="edge27" class="edge">
<title>19&#45;&gt;3</title>
<path fill="none" stroke="black" d="M175.37,-150.1C184.84,-148 194.72,-145.88 204,-144 283.74,-127.83 376.24,-111.37 435.16,-101.18"/>
<polygon fill="black" stroke="black" points="435.74,-104.63 445,-99.48 434.55,-97.73 435.74,-104.63"/>
</g>
<!-- 20&#45;&gt;3 -->
<g id="edge29" class="edge">
<title>20&#45;&gt;3</title>
<path fill="none" stroke="black" d="M552.75,-288.36C559.59,-278.39 567.34,-265.14 571,-252 583.88,-205.76 594.34,-186.49 572,-144 564.53,-129.78 551.32,-118.64 537.93,-110.31"/>
<polygon fill="black" stroke="black" points="539.96,-107.44 529.55,-105.5 536.48,-113.51 539.96,-107.44"/>
</g>
<!-- 21&#45;&gt;3 -->
<g id="edge33" class="edge">
<title>21&#45;&gt;3</title>
<path fill="none" stroke="black" d="M1167,-647.51C1167,-620.71 1167,-567.87 1167,-523 1167,-523 1167,-523 1167,-233 1167,-174.16 1122.85,-167.71 1069,-144 979.76,-104.71 693.78,-94.53 562.29,-91.9"/>
<polygon fill="black" stroke="black" points="562.4,-88.4 552.33,-91.71 562.27,-95.4 562.4,-88.4"/>
</g>
<!-- 22 -->
<g id="node23" class="node">
<title>22</title>
<polygon fill="none" stroke="#b3b3b3" points="1327,-612 1195,-612 1195,-576 1327,-576 1327,-612"/>
<text text-anchor="middle" x="1261" y="-590.3" font-family="Times,serif" font-size="14.00">mpc&#45;1.3.1.tar.gz</text>
</g>
<!-- 21&#45;&gt;22 -->
<g id="edge34" class="edge">
<title>21&#45;&gt;22</title>
<path fill="none" stroke="black" d="M1189.75,-648.05C1201.47,-639.33 1215.96,-628.54 1228.8,-618.98"/>
<polygon fill="black" stroke="black" points="1230.66,-621.96 1236.59,-613.18 1226.48,-616.34 1230.66,-621.96"/>
</g>
<!-- 23&#45;&gt;1 -->
<g id="edge36" class="edge">
<title>23&#45;&gt;1</title>
<path fill="none" stroke="black" d="M486.79,-651C513.91,-640.09 551.76,-624.86 581.15,-613.04"/>
<polygon fill="black" stroke="black" points="582.19,-616.4 590.16,-609.42 579.58,-609.9 582.19,-616.4"/>
</g>
<!-- 23&#45;&gt;12 -->
<g id="edge40" class="edge">
<title>23&#45;&gt;12</title>
<path fill="none" stroke="black" d="M459.05,-647.85C474.24,-610.91 510.17,-523.55 528.62,-478.67"/>
<polygon fill="black" stroke="black" points="531.77,-480.21 532.34,-469.63 525.3,-477.55 531.77,-480.21"/>
</g>
<!-- 24 -->
<g id="node25" class="node">
<title>24</title>
<ellipse fill="none" stroke="black" cx="222" cy="-594" rx="130.78" ry="18"/>
<text text-anchor="middle" x="222" y="-590.3" font-family="Times,serif" font-size="14.00">mpfr&#45;4.2.0.tar.bz2&#45;unpack</text>
</g>
<!-- 23&#45;&gt;24 -->
<g id="edge37" class="edge">
<title>23&#45;&gt;24</title>
<path fill="none" stroke="black" d="M411.15,-652.57C376.14,-641.91 325.17,-626.4 284.96,-614.16"/>
<polygon fill="black" stroke="black" points="286.22,-610.89 275.63,-611.32 284.18,-617.58 286.22,-610.89"/>
</g>
<!-- 24&#45;&gt;3 -->
<g id="edge38" class="edge">
<title>24&#45;&gt;3</title>
<path fill="none" stroke="black" d="M150.23,-578.54C85.37,-560.79 0,-523.63 0,-451 0,-451 0,-451 0,-233 0,-190.66 0.55,-169.97 34,-144 93.91,-97.49 315.06,-90.72 427.87,-90.4"/>
<polygon fill="black" stroke="black" points="427.59,-93.9 437.59,-90.39 427.58,-86.9 427.59,-93.9"/>
</g>
<!-- 25 -->
<g id="node26" class="node">
<title>25</title>
<polygon fill="none" stroke="#b3b3b3" points="295,-540 149,-540 149,-504 295,-504 295,-540"/>
<text text-anchor="middle" x="222" y="-518.3" font-family="Times,serif" font-size="14.00">mpfr&#45;4.2.0.tar.bz2</text>
</g>
<!-- 24&#45;&gt;25 -->
<g id="edge39" class="edge">
<title>24&#45;&gt;25</title>
<path fill="none" stroke="black" d="M222,-575.7C222,-568.41 222,-559.73 222,-551.54"/>
<polygon fill="black" stroke="black" points="225.5,-551.62 222,-541.62 218.5,-551.62 225.5,-551.62"/>
</g>
</g>
</svg>
