<?xml version="1.0" encoding="UTF-8" standalone="no"?>
<!DOCTYPE svg PUBLIC "-//W3C//DTD SVG 1.1//EN"
 "http://www.w3.org/Graphics/SVG/1.1/DTD/svg11.dtd">
<!-- Generated by graphviz version 7.0.2 (0)
 -->
<!-- Pages: 1 -->
<svg width="196pt" height="188pt"
 viewBox="0.00 0.00 195.95 188.00" xmlns="http://www.w3.org/2000/svg" xmlns:xlink="http://www.w3.org/1999/xlink">
<g id="graph0" class="graph" transform="scale(1 1) rotate(0) translate(4 184)">
<polygon fill="white" stroke="none" points="-4,4 -4,-184 191.95,-184 191.95,4 -4,4"/>
<!-- bootstrap -->
<g id="node1" class="node">
<title>bootstrap</title>
<ellipse fill="none" stroke="black" cx="53.95" cy="-18" rx="53.89" ry="18"/>
<text text-anchor="middle" x="53.95" y="-14.3" font-family="Times,serif" font-size="14.00">bootstrap</text>
</g>
<!-- musl -->
<g id="node2" class="node">
<title>musl</title>
<ellipse fill="none" stroke="black" cx="83.95" cy="-90" rx="32.49" ry="18"/>
<text text-anchor="middle" x="83.95" y="-86.3" font-family="Times,serif" font-size="14.00">musl</text>
</g>
<!-- musl&#45;&gt;bootstrap -->
<g id="edge1" class="edge">
<title>musl&#45;&gt;bootstrap</title>
<path fill="none" stroke="black" d="M76.68,-72.05C73.42,-64.43 69.47,-55.23 65.8,-46.65"/>
<polygon fill="black" stroke="black" points="69.1,-45.48 61.95,-37.67 62.67,-48.24 69.1,-45.48"/>
</g>
<!-- gcc -->
<g id="node3" class="node">
<title>gcc</title>
<ellipse fill="none" stroke="black" cx="83.95" cy="-162" rx="27" ry="18"/>
<text text-anchor="middle" x="83.95" y="-158.3" font-family="Times,serif" font-size="14.00">gcc</text>
</g>
<!-- gcc&#45;&gt;bootstrap -->
<g id="edge4" class="edge">
<title>gcc&#45;&gt;bootstrap</title>
<path fill="none" stroke="black" d="M68.74,-146.85C59.31,-136.99 48.06,-122.97 42.95,-108 36.21,-88.3 39.52,-64.9 44.21,-47.04"/>
<polygon fill="black" stroke="black" points="47.5,-48.23 46.97,-37.65 40.79,-46.25 47.5,-48.23"/>
</g>
<!-- gcc&#45;&gt;musl -->
<g id="edge2" class="edge">
<title>gcc&#45;&gt;musl</title>
<path fill="none" stroke="black" d="M83.95,-143.7C83.95,-136.41 83.95,-127.73 83.95,-119.54"/>
<polygon fill="black" stroke="black" points="87.45,-119.62 83.95,-109.62 80.45,-119.62 87.45,-119.62"/>
</g>
<!-- other -->
<g id="node4" class="node">
<title>other</title>
<ellipse fill="none" stroke="black" cx="160.95" cy="-90" rx="27" ry="18"/>
<text text-anchor="middle" x="160.95" y="-86.3" font-family="Times,serif" font-size="14.00">...</text>
</g>
<!-- gcc&#45;&gt;other -->
<g id="edge3" class="edge">
<title>gcc&#45;&gt;other</title>
<path fill="none" stroke="black" d="M99.53,-146.83C110.28,-137.06 124.78,-123.88 136.99,-112.78"/>
<polygon fill="black" stroke="black" points="139.22,-115.48 144.27,-106.16 134.51,-110.3 139.22,-115.48"/>
</g>
</g>
</svg>
