<?xml version="1.0" encoding="UTF-8" standalone="no"?>
<!DOCTYPE svg PUBLIC "-//W3C//DTD SVG 1.1//EN"
 "http://www.w3.org/Graphics/SVG/1.1/DTD/svg11.dtd">
<!-- Generated by graphviz version 7.0.2 (0)
 -->
<!-- Pages: 1 -->
<svg width="641pt" height="332pt"
 viewBox="0.00 0.00 640.64 332.00" xmlns="http://www.w3.org/2000/svg" xmlns:xlink="http://www.w3.org/1999/xlink">
<g id="graph0" class="graph" transform="scale(1 1) rotate(0) translate(4 328)">
<polygon fill="white" stroke="none" points="-4,4 -4,-328 636.64,-328 636.64,4 -4,4"/>
<!-- 0 -->
<g id="node1" class="node">
<title>0</title>
<ellipse fill="none" stroke="black" cx="233.14" cy="-306" rx="59.59" ry="18"/>
<text text-anchor="middle" x="233.14" y="-302.3" font-family="Times,serif" font-size="14.00">musl&#45;1.2.3</text>
</g>
<!-- 1 -->
<g id="node2" class="node">
<title>1</title>
<ellipse fill="none" stroke="black" cx="124.14" cy="-234" rx="124.28" ry="18"/>
<text text-anchor="middle" x="124.14" y="-230.3" font-family="Times,serif" font-size="14.00">musl&#45;1.2.3.tar.gz&#45;unpack</text>
</g>
<!-- 0&#45;&gt;1 -->
<g id="edge1" class="edge">
<title>0&#45;&gt;1</title>
<path fill="none" stroke="black" d="M208.68,-289.29C194.33,-280.08 175.95,-268.27 159.99,-258.02"/>
<polygon fill="black" stroke="black" points="162,-255.16 151.7,-252.7 158.22,-261.05 162,-255.16"/>
</g>
<!-- 8 -->
<g id="node9" class="node">
<title>8</title>
<ellipse fill="none" stroke="black" cx="342.14" cy="-234" rx="75.29" ry="18"/>
<text text-anchor="middle" x="342.14" y="-230.3" font-family="Times,serif" font-size="14.00">stage0&#45;stdenv</text>
</g>
<!-- 0&#45;&gt;8 -->
<g id="edge8" class="edge">
<title>0&#45;&gt;8</title>
<path fill="none" stroke="black" d="M257.6,-289.29C272.15,-279.94 290.87,-267.93 306.98,-257.58"/>
<polygon fill="black" stroke="black" points="308.83,-260.55 315.35,-252.2 305.04,-254.66 308.83,-260.55"/>
</g>
<!-- 2 -->
<g id="node3" class="node">
<title>2</title>
<ellipse fill="none" stroke="black" cx="297.14" cy="-90" rx="53.89" ry="18"/>
<text text-anchor="middle" x="297.14" y="-86.3" font-family="Times,serif" font-size="14.00">bootstrap</text>
</g>
<!-- 1&#45;&gt;2 -->
<g id="edge2" class="edge">
<title>1&#45;&gt;2</title>
<path fill="none" stroke="black" d="M104.43,-215.77C85.28,-196.94 61.48,-166.46 79.14,-144 98.23,-119.71 177.41,-105.17 234.85,-97.62"/>
<polygon fill="black" stroke="black" points="235.04,-101.13 244.52,-96.4 234.16,-94.18 235.04,-101.13"/>
</g>
<!-- 7 -->
<g id="node8" class="node">
<title>7</title>
<polygon fill="none" stroke="#b3b3b3" points="223.64,-180 88.64,-180 88.64,-144 223.64,-144 223.64,-180"/>
<text text-anchor="middle" x="156.14" y="-158.3" font-family="Times,serif" font-size="14.00">musl&#45;1.2.3.tar.gz</text>
</g>
<!-- 1&#45;&gt;7 -->
<g id="edge7" class="edge">
<title>1&#45;&gt;7</title>
<path fill="none" stroke="black" d="M132.05,-215.7C135.54,-208.07 139.72,-198.92 143.62,-190.4"/>
<polygon fill="black" stroke="black" points="146.72,-192.03 147.69,-181.48 140.35,-189.12 146.72,-192.03"/>
</g>
<!-- 3 -->
<g id="node4" class="node">
<title>3</title>
<polygon fill="none" stroke="#b3b3b3" points="183.14,-36 19.14,-36 19.14,0 183.14,0 183.14,-36"/>
<text text-anchor="middle" x="101.14" y="-14.3" font-family="Times,serif" font-size="14.00">bootstrap&#45;tools.tar.xz</text>
</g>
<!-- 2&#45;&gt;3 -->
<g id="edge3" class="edge">
<title>2&#45;&gt;3</title>
<path fill="none" stroke="black" d="M261.19,-76.16C233.09,-66.13 193.43,-51.96 160.62,-40.24"/>
<polygon fill="black" stroke="black" points="161.8,-36.95 151.21,-36.88 159.45,-43.54 161.8,-36.95"/>
</g>
<!-- 4 -->
<g id="node5" class="node">
<title>4</title>
<polygon fill="none" stroke="#b3b3b3" points="277.14,-36 201.14,-36 201.14,0 277.14,0 277.14,-36"/>
<text text-anchor="middle" x="239.14" y="-14.3" font-family="Times,serif" font-size="14.00">busybox</text>
</g>
<!-- 2&#45;&gt;4 -->
<g id="edge4" class="edge">
<title>2&#45;&gt;4</title>
<path fill="none" stroke="black" d="M283.39,-72.41C276.66,-64.28 268.39,-54.31 260.83,-45.18"/>
<polygon fill="black" stroke="black" points="263.64,-43.08 254.56,-37.61 258.25,-47.55 263.64,-43.08"/>
</g>
<!-- 5 -->
<g id="node6" class="node">
<title>5</title>
<polygon fill="none" stroke="#b3b3b3" points="415.14,-36 295.14,-36 295.14,0 415.14,0 415.14,-36"/>
<text text-anchor="middle" x="355.14" y="-14.3" font-family="Times,serif" font-size="14.00">toybox&#45;x86_64</text>
</g>
<!-- 2&#45;&gt;5 -->
<g id="edge5" class="edge">
<title>2&#45;&gt;5</title>
<path fill="none" stroke="black" d="M310.88,-72.41C317.62,-64.28 325.88,-54.31 333.44,-45.18"/>
<polygon fill="black" stroke="black" points="336.03,-47.55 339.72,-37.61 330.64,-43.08 336.03,-47.55"/>
</g>
<!-- 6 -->
<g id="node7" class="node">
<title>6</title>
<polygon fill="none" stroke="#b3b3b3" points="632.64,-36 433.64,-36 433.64,0 632.64,0 632.64,-36"/>
<text text-anchor="middle" x="533.14" y="-14.3" font-family="Times,serif" font-size="14.00">unpack&#45;bootstrap&#45;tools.sh</text>
</g>
<!-- 2&#45;&gt;6 -->
<g id="edge6" class="edge">
<title>2&#45;&gt;6</title>
<path fill="none" stroke="black" d="M336.64,-77.28C371.21,-67.03 422.23,-51.9 463.62,-39.62"/>
<polygon fill="black" stroke="black" points="464.42,-43.03 473.02,-36.83 462.43,-36.32 464.42,-43.03"/>
</g>
<!-- 8&#45;&gt;2 -->
<g id="edge9" class="edge">
<title>8&#45;&gt;2</title>
<path fill="none" stroke="black" d="M309.58,-217.55C295,-208.75 279.27,-196.23 271.14,-180 261.19,-160.15 269.51,-135.86 279.3,-117.67"/>
<polygon fill="black" stroke="black" points="282.31,-119.45 284.34,-109.05 276.27,-115.91 282.31,-119.45"/>
</g>
<!-- 9 -->
<g id="node10" class="node">
<title>9</title>
<ellipse fill="none" stroke="black" cx="342.14" cy="-162" rx="61.99" ry="18"/>
<text text-anchor="middle" x="342.14" y="-158.3" font-family="Times,serif" font-size="14.00">cc&#45;wrapper</text>
</g>
<!-- 8&#45;&gt;9 -->
<g id="edge10" class="edge">
<title>8&#45;&gt;9</title>
<path fill="none" stroke="black" d="M342.14,-215.7C342.14,-208.41 342.14,-199.73 342.14,-191.54"/>
<polygon fill="black" stroke="black" points="345.64,-191.62 342.14,-181.62 338.64,-191.62 345.64,-191.62"/>
</g>
<!-- 10 -->
<g id="node11" class="node">
<title>10</title>
<ellipse fill="none" stroke="black" cx="482.14" cy="-162" rx="59.59" ry="18"/>
<text text-anchor="middle" x="482.14" y="-158.3" font-family="Times,serif" font-size="14.00">ld&#45;wrapper</text>
</g>
<!-- 8&#45;&gt;10 -->
<g id="edge12" class="edge">
<title>8&#45;&gt;10</title>
<path fill="none" stroke="black" d="M373.56,-217.29C393.79,-207.18 420.27,-193.93 442.02,-183.06"/>
<polygon fill="black" stroke="black" points="443.53,-186.22 450.91,-178.61 440.4,-179.96 443.53,-186.22"/>
</g>
<!-- 9&#45;&gt;2 -->
<g id="edge11" class="edge">
<title>9&#45;&gt;2</title>
<path fill="none" stroke="black" d="M331.25,-144.05C326.11,-136.06 319.85,-126.33 314.11,-117.4"/>
<polygon fill="black" stroke="black" points="317.1,-115.58 308.75,-109.06 311.21,-119.37 317.1,-115.58"/>
</g>
<!-- 10&#45;&gt;2 -->
<g id="edge13" class="edge">
<title>10&#45;&gt;2</title>
<path fill="none" stroke="black" d="M446.03,-147.34C416.37,-136.11 374.19,-120.15 342.29,-108.09"/>
<polygon fill="black" stroke="black" points="343.91,-104.96 333.32,-104.69 341.43,-111.5 343.91,-104.96"/>
</g>
</g>
</svg>
