<?xml version="1.0" encoding="UTF-8" standalone="no"?>
<!DOCTYPE svg PUBLIC "-//W3C//DTD SVG 1.1//EN"
 "http://www.w3.org/Graphics/SVG/1.1/DTD/svg11.dtd">
<!-- Generated by graphviz version 7.0.2 (0)
 -->
<!-- Pages: 1 -->
<svg width="177pt" height="188pt"
 viewBox="0.00 0.00 177.50 188.00" xmlns="http://www.w3.org/2000/svg" xmlns:xlink="http://www.w3.org/1999/xlink">
<g id="graph0" class="graph" transform="scale(1 1) rotate(0) translate(4 184)">
<polygon fill="white" stroke="none" points="-4,4 -4,-184 173.5,-184 173.5,4 -4,4"/>
<!-- musl -->
<g id="node1" class="node">
<title>musl</title>
<ellipse fill="none" stroke="black" cx="63" cy="-162" rx="32.49" ry="18"/>
<text text-anchor="middle" x="63" y="-158.3" font-family="Times,serif" font-size="14.00">musl</text>
</g>
<!-- other -->
<g id="node2" class="node">
<title>other</title>
<ellipse fill="none" stroke="black" cx="27" cy="-90" rx="27" ry="18"/>
<text text-anchor="middle" x="27" y="-86.3" font-family="Times,serif" font-size="14.00">...</text>
</g>
<!-- musl&#45;&gt;other -->
<g id="edge2" class="edge">
<title>musl&#45;&gt;other</title>
<path fill="none" stroke="black" d="M54.47,-144.41C50.34,-136.39 45.29,-126.57 40.65,-117.54"/>
<polygon fill="black" stroke="black" points="43.85,-116.11 36.16,-108.82 37.62,-119.31 43.85,-116.11"/>
</g>
<!-- gcc -->
<g id="node3" class="node">
<title>gcc</title>
<ellipse fill="none" stroke="black" cx="99" cy="-90" rx="27" ry="18"/>
<text text-anchor="middle" x="99" y="-86.3" font-family="Times,serif" font-size="14.00">gcc</text>
</g>
<!-- musl&#45;&gt;gcc -->
<g id="edge1" class="edge">
<title>musl&#45;&gt;gcc</title>
<path fill="none" stroke="black" d="M71.53,-144.41C75.66,-136.39 80.71,-126.57 85.35,-117.54"/>
<polygon fill="black" stroke="black" points="88.38,-119.31 89.84,-108.82 82.15,-116.11 88.38,-119.31"/>
</g>
<!-- other2 -->
<g id="node4" class="node">
<title>other2</title>
<ellipse fill="none" stroke="black" cx="60" cy="-18" rx="27" ry="18"/>
<text text-anchor="middle" x="60" y="-14.3" font-family="Times,serif" font-size="14.00">...</text>
</g>
<!-- gcc&#45;&gt;other2 -->
<g id="edge3" class="edge">
<title>gcc&#45;&gt;other2</title>
<path fill="none" stroke="black" d="M89.95,-72.76C85.38,-64.55 79.71,-54.37 74.54,-45.09"/>
<polygon fill="black" stroke="black" points="77.66,-43.5 69.73,-36.47 71.54,-46.91 77.66,-43.5"/>
</g>
<!-- musl2 -->
<g id="node5" class="node">
<title>musl2</title>
<ellipse fill="none" stroke="black" cx="137" cy="-18" rx="32.49" ry="18"/>
<text text-anchor="middle" x="137" y="-14.3" font-family="Times,serif" font-size="14.00">musl</text>
</g>
<!-- gcc&#45;&gt;musl2 -->
<g id="edge4" class="edge">
<title>gcc&#45;&gt;musl2</title>
<path fill="none" stroke="black" d="M107.81,-72.76C112.21,-64.67 117.64,-54.66 122.62,-45.49"/>
<polygon fill="black" stroke="black" points="125.55,-47.42 127.25,-36.96 119.4,-44.08 125.55,-47.42"/>
</g>
</g>
</svg>
