<?xml version="1.0" encoding="UTF-8" standalone="no"?>
<!DOCTYPE svg PUBLIC "-//W3C//DTD SVG 1.1//EN"
 "http://www.w3.org/Graphics/SVG/1.1/DTD/svg11.dtd">
<!-- Generated by graphviz version 7.0.2 (0)
 -->
<!-- Pages: 1 -->
<svg width="139pt" height="188pt"
 viewBox="0.00 0.00 139.50 188.00" xmlns="http://www.w3.org/2000/svg" xmlns:xlink="http://www.w3.org/1999/xlink">
<g id="graph0" class="graph" transform="scale(1 1) rotate(0) translate(4 184)">
<polygon fill="white" stroke="none" points="-4,4 -4,-184 135.5,-184 135.5,4 -4,4"/>
<!-- musl -->
<g id="node1" class="node">
<title>musl</title>
<ellipse fill="none" stroke="black" cx="99" cy="-162" rx="32.49" ry="18"/>
<text text-anchor="middle" x="99" y="-158.3" font-family="Times,serif" font-size="14.00">musl</text>
</g>
<!-- other -->
<g id="node2" class="node">
<title>other</title>
<ellipse fill="none" stroke="black" cx="27" cy="-90" rx="27" ry="18"/>
<text text-anchor="middle" x="27" y="-86.3" font-family="Times,serif" font-size="14.00">...</text>
</g>
<!-- musl&#45;&gt;other -->
<g id="edge2" class="edge">
<title>musl&#45;&gt;other</title>
<path fill="none" stroke="black" d="M83.38,-145.81C73.49,-136.2 60.54,-123.61 49.55,-112.93"/>
<polygon fill="black" stroke="black" points="52.31,-110.72 42.7,-106.26 47.43,-115.74 52.31,-110.72"/>
</g>
<!-- gcc -->
<g id="node3" class="node">
<title>gcc</title>
<ellipse fill="none" stroke="black" cx="99" cy="-90" rx="27" ry="18"/>
<text text-anchor="middle" x="99" y="-86.3" font-family="Times,serif" font-size="14.00">gcc</text>
</g>
<!-- musl&#45;&gt;gcc -->
<g id="edge1" class="edge">
<title>musl&#45;&gt;gcc</title>
<path fill="none" stroke="black" d="M93.12,-144.05C92.33,-136.57 92.08,-127.58 92.37,-119.14"/>
<polygon fill="black" stroke="black" points="95.85,-119.51 93.04,-109.3 88.87,-119.04 95.85,-119.51"/>
</g>
<!-- gcc&#45;&gt;musl -->
<g id="edge4" class="edge">
<title>gcc&#45;&gt;musl</title>
<path fill="none" stroke="black" d="M104.86,-107.79C105.66,-115.25 105.92,-124.24 105.64,-132.69"/>
<polygon fill="black" stroke="black" points="102.16,-132.33 104.98,-142.54 109.14,-132.8 102.16,-132.33"/>
</g>
<!-- other2 -->
<g id="node4" class="node">
<title>other2</title>
<ellipse fill="none" stroke="black" cx="99" cy="-18" rx="27" ry="18"/>
<text text-anchor="middle" x="99" y="-14.3" font-family="Times,serif" font-size="14.00">...</text>
</g>
<!-- gcc&#45;&gt;other2 -->
<g id="edge3" class="edge">
<title>gcc&#45;&gt;other2</title>
<path fill="none" stroke="black" d="M99,-71.7C99,-64.41 99,-55.73 99,-47.54"/>
<polygon fill="black" stroke="black" points="102.5,-47.62 99,-37.62 95.5,-47.62 102.5,-47.62"/>
</g>
</g>
</svg>
