<?xml version="1.0" encoding="UTF-8" standalone="no"?>
<!DOCTYPE svg PUBLIC "-//W3C//DTD SVG 1.1//EN"
 "http://www.w3.org/Graphics/SVG/1.1/DTD/svg11.dtd">
<!-- Generated by graphviz version 7.0.2 (0)
 -->
<!-- Pages: 1 -->
<svg width="134pt" height="116pt"
 viewBox="0.00 0.00 134.00 116.00" xmlns="http://www.w3.org/2000/svg" xmlns:xlink="http://www.w3.org/1999/xlink">
<g id="graph0" class="graph" transform="scale(1 1) rotate(0) translate(4 112)">
<polygon fill="white" stroke="none" points="-4,4 -4,-112 130,-112 130,4 -4,4"/>
<!-- musl -->
<g id="node1" class="node">
<title>musl</title>
<ellipse fill="none" stroke="black" cx="63" cy="-90" rx="32.49" ry="18"/>
<text text-anchor="middle" x="63" y="-86.3" font-family="Times,serif" font-size="14.00">musl</text>
</g>
<!-- other -->
<g id="node2" class="node">
<title>other</title>
<ellipse fill="none" stroke="black" cx="27" cy="-18" rx="27" ry="18"/>
<text text-anchor="middle" x="27" y="-14.3" font-family="Times,serif" font-size="14.00">...</text>
</g>
<!-- musl&#45;&gt;other -->
<g id="edge2" class="edge">
<title>musl&#45;&gt;other</title>
<path fill="none" stroke="black" d="M54.47,-72.41C50.34,-64.39 45.29,-54.57 40.65,-45.54"/>
<polygon fill="black" stroke="black" points="43.85,-44.11 36.16,-36.82 37.62,-47.31 43.85,-44.11"/>
</g>
<!-- gcc -->
<g id="node3" class="node">
<title>gcc</title>
<ellipse fill="none" stroke="black" cx="99" cy="-18" rx="27" ry="18"/>
<text text-anchor="middle" x="99" y="-14.3" font-family="Times,serif" font-size="14.00">gcc</text>
</g>
<!-- musl&#45;&gt;gcc -->
<g id="edge1" class="edge">
<title>musl&#45;&gt;gcc</title>
<path fill="none" stroke="black" d="M71.53,-72.41C75.66,-64.39 80.71,-54.57 85.35,-45.54"/>
<polygon fill="black" stroke="black" points="88.38,-47.31 89.84,-36.82 82.15,-44.11 88.38,-47.31"/>
</g>
</g>
</svg>
