<?xml version="1.0" encoding="UTF-8" standalone="no"?>
<!DOCTYPE svg PUBLIC "-//W3C//DTD SVG 1.1//EN"
 "http://www.w3.org/Graphics/SVG/1.1/DTD/svg11.dtd">
<!-- Generated by graphviz version 7.0.2 (0)
 -->
<!-- Pages: 1 -->
<svg width="302pt" height="476pt"
 viewBox="0.00 0.00 301.95 476.00" xmlns="http://www.w3.org/2000/svg" xmlns:xlink="http://www.w3.org/1999/xlink">
<g id="graph0" class="graph" transform="scale(1 1) rotate(0) translate(4 472)">
<polygon fill="white" stroke="none" points="-4,4 -4,-472 297.95,-472 297.95,4 -4,4"/>
<!-- bootstrap -->
<g id="node1" class="node">
<title>bootstrap</title>
<ellipse fill="none" stroke="black" cx="53.95" cy="-18" rx="53.89" ry="18"/>
<text text-anchor="middle" x="53.95" y="-14.3" font-family="Times,serif" font-size="14.00">bootstrap</text>
</g>
<!-- musl0 -->
<g id="node2" class="node">
<title>musl0</title>
<ellipse fill="none" stroke="black" cx="100.95" cy="-90" rx="66.09" ry="18"/>
<text text-anchor="middle" x="100.95" y="-86.3" font-family="Times,serif" font-size="14.00">stage0 musl</text>
</g>
<!-- musl0&#45;&gt;bootstrap -->
<g id="edge1" class="edge">
<title>musl0&#45;&gt;bootstrap</title>
<path fill="none" stroke="black" d="M89.57,-72.05C84.14,-63.97 77.53,-54.12 71.48,-45.11"/>
<polygon fill="black" stroke="black" points="74.54,-43.4 66.06,-37.05 68.73,-47.3 74.54,-43.4"/>
</g>
<!-- gcc0 -->
<g id="node3" class="node">
<title>gcc0</title>
<ellipse fill="none" stroke="black" cx="100.95" cy="-162" rx="59.59" ry="18"/>
<text text-anchor="middle" x="100.95" y="-158.3" font-family="Times,serif" font-size="14.00">stage0 gcc</text>
</g>
<!-- gcc0&#45;&gt;bootstrap -->
<g id="edge4" class="edge">
<title>gcc0&#45;&gt;bootstrap</title>
<path fill="none" stroke="black" d="M67.77,-146.62C52.06,-137.91 34.82,-125.13 25.95,-108 15.62,-88.07 24.68,-63.64 35.16,-45.42"/>
<polygon fill="black" stroke="black" points="38.07,-47.37 40.39,-37.03 32.13,-43.67 38.07,-47.37"/>
</g>
<!-- gcc0&#45;&gt;musl0 -->
<g id="edge2" class="edge">
<title>gcc0&#45;&gt;musl0</title>
<path fill="none" stroke="black" d="M100.95,-143.7C100.95,-136.41 100.95,-127.73 100.95,-119.54"/>
<polygon fill="black" stroke="black" points="104.45,-119.62 100.95,-109.62 97.45,-119.62 104.45,-119.62"/>
</g>
<!-- other -->
<g id="node4" class="node">
<title>other</title>
<ellipse fill="none" stroke="black" cx="211.95" cy="-90" rx="27" ry="18"/>
<text text-anchor="middle" x="211.95" y="-86.3" font-family="Times,serif" font-size="14.00">...</text>
</g>
<!-- gcc0&#45;&gt;other -->
<g id="edge3" class="edge">
<title>gcc0&#45;&gt;other</title>
<path fill="none" stroke="black" d="M125.86,-145.29C143.01,-134.48 165.82,-120.09 183.66,-108.84"/>
<polygon fill="black" stroke="black" points="185.12,-112.06 191.71,-103.76 181.38,-106.14 185.12,-112.06"/>
</g>
<!-- musl1 -->
<g id="node5" class="node">
<title>musl1</title>
<ellipse fill="none" stroke="black" cx="100.95" cy="-234" rx="66.09" ry="18"/>
<text text-anchor="middle" x="100.95" y="-230.3" font-family="Times,serif" font-size="14.00">stage1 musl</text>
</g>
<!-- musl1&#45;&gt;gcc0 -->
<g id="edge5" class="edge">
<title>musl1&#45;&gt;gcc0</title>
<path fill="none" stroke="black" d="M100.95,-215.7C100.95,-208.41 100.95,-199.73 100.95,-191.54"/>
<polygon fill="black" stroke="black" points="104.45,-191.62 100.95,-181.62 97.45,-191.62 104.45,-191.62"/>
</g>
<!-- gcc1 -->
<g id="node6" class="node">
<title>gcc1</title>
<ellipse fill="none" stroke="black" cx="155.95" cy="-306" rx="59.59" ry="18"/>
<text text-anchor="middle" x="155.95" y="-302.3" font-family="Times,serif" font-size="14.00">stage1 gcc</text>
</g>
<!-- gcc1&#45;&gt;musl1 -->
<g id="edge6" class="edge">
<title>gcc1&#45;&gt;musl1</title>
<path fill="none" stroke="black" d="M142.63,-288.05C136.21,-279.89 128.38,-269.91 121.24,-260.82"/>
<polygon fill="black" stroke="black" points="124,-258.68 115.07,-252.98 118.5,-263 124,-258.68"/>
</g>
<!-- other1 -->
<g id="node7" class="node">
<title>other1</title>
<ellipse fill="none" stroke="black" cx="211.95" cy="-234" rx="27" ry="18"/>
<text text-anchor="middle" x="211.95" y="-230.3" font-family="Times,serif" font-size="14.00">...</text>
</g>
<!-- gcc1&#45;&gt;other1 -->
<g id="edge7" class="edge">
<title>gcc1&#45;&gt;other1</title>
<path fill="none" stroke="black" d="M169.5,-288.05C176.4,-279.44 184.9,-268.81 192.48,-259.33"/>
<polygon fill="black" stroke="black" points="195.2,-261.53 198.71,-251.54 189.73,-257.16 195.2,-261.53"/>
</g>
<!-- musl2 -->
<g id="node8" class="node">
<title>musl2</title>
<ellipse fill="none" stroke="black" cx="155.95" cy="-378" rx="66.09" ry="18"/>
<text text-anchor="middle" x="155.95" y="-374.3" font-family="Times,serif" font-size="14.00">stage2 musl</text>
</g>
<!-- musl2&#45;&gt;gcc1 -->
<g id="edge8" class="edge">
<title>musl2&#45;&gt;gcc1</title>
<path fill="none" stroke="black" d="M155.95,-359.7C155.95,-352.41 155.95,-343.73 155.95,-335.54"/>
<polygon fill="black" stroke="black" points="159.45,-335.62 155.95,-325.62 152.45,-335.62 159.45,-335.62"/>
</g>
<!-- gcc2 -->
<g id="node9" class="node">
<title>gcc2</title>
<ellipse fill="none" stroke="black" cx="210.95" cy="-450" rx="59.59" ry="18"/>
<text text-anchor="middle" x="210.95" y="-446.3" font-family="Times,serif" font-size="14.00">stage2 gcc</text>
</g>
<!-- gcc2&#45;&gt;musl2 -->
<g id="edge9" class="edge">
<title>gcc2&#45;&gt;musl2</title>
<path fill="none" stroke="black" d="M197.63,-432.05C191.21,-423.89 183.38,-413.91 176.24,-404.82"/>
<polygon fill="black" stroke="black" points="179,-402.68 170.07,-396.98 173.5,-407 179,-402.68"/>
</g>
<!-- other2 -->
<g id="node10" class="node">
<title>other2</title>
<ellipse fill="none" stroke="black" cx="266.95" cy="-378" rx="27" ry="18"/>
<text text-anchor="middle" x="266.95" y="-374.3" font-family="Times,serif" font-size="14.00">...</text>
</g>
<!-- gcc2&#45;&gt;other2 -->
<g id="edge10" class="edge">
<title>gcc2&#45;&gt;other2</title>
<path fill="none" stroke="black" d="M224.5,-432.05C231.4,-423.44 239.9,-412.81 247.48,-403.33"/>
<polygon fill="black" stroke="black" points="250.2,-405.53 253.71,-395.54 244.73,-401.16 250.2,-405.53"/>
</g>
</g>
</svg>
